<svg width="600" height="210" viewBox="0 0 600 210" xmlns="http://www.w3.org/2000/svg">
  <rect x="1" y="1" width="598" height="208" rx="14" fill="#161b22" stroke="#30363d"/>

  <!-- watermark diamond -->
  <rect x="536" y="24" width="34" height="34" rx="6" fill="none" stroke="#F85149" stroke-opacity="0.35" transform="rotate(45 553 41)"/>

  <circle cx="40" cy="33" r="16" fill="#F85149" fill-opacity="0.14"/><g transform="translate(28,21)" fill="none" stroke="#F85149" stroke-width="1.6" stroke-linecap="round" stroke-linejoin="round"><path d="M12 21s-7.5-4.9-10-9.4C.4 8.3 2 4.5 5.7 4c2.1-.3 4 .8 6.3 3.3C14.3 4.8 16.2 3.7 18.3 4c3.7.5 5.3 4.3 3.7 7.6C19.5 16.1 12 21 12 21z"/></g>
  <text x="66" y="40" font-family='Segoe UI, Helvetica, Arial, sans-serif' font-size="20" font-weight="700" fill="#E6EDF3">Explainable Stroke Risk Predictor</text>
  <text x="24" y="78" font-family='Segoe UI, Helvetica, Arial, sans-serif' font-size="14" fill="#8B949E">XGBoost classifier on a 95:5 imbalanced clinical dataset,</text>
<text x="24" y="99" font-family='Segoe UI, Helvetica, Arial, sans-serif' font-size="14" fill="#8B949E">tuned to 80% recall. A SHAP audit caught a real "age shield"</text>
<text x="24" y="120" font-family='Segoe UI, Helvetica, Arial, sans-serif' font-size="14" fill="#8B949E">bias in the model before it shipped, then re-verified it.</text>

  <text x="24" y="147" font-family='SFMono-Regular, Consolas, Liberation Mono, Menlo, monospace' font-size="12" fill="#F85149">XGBoost &#183; SHAP &#183; LIME &#183; Streamlit</text>

  <rect x="24" y="164" width="66" height="24" rx="12" fill="#21262d" stroke="#F85149" stroke-opacity="0.55"/><text x="57" y="180" font-family='SFMono-Regular, Consolas, Liberation Mono, Menlo, monospace' font-size="11.5" fill="#E6EDF3" text-anchor="middle">XGBoost</text><rect x="98.4" y="164" width="45" height="24" rx="12" fill="#21262d" stroke="#F85149" stroke-opacity="0.55"/><text x="121" y="180" font-family='SFMono-Regular, Consolas, Liberation Mono, Menlo, monospace' font-size="11.5" fill="#E6EDF3" text-anchor="middle">SHAP</text><rect x="151.2" y="164" width="38" height="24" rx="12" fill="#21262d" stroke="#F85149" stroke-opacity="0.55"/><text x="170" y="180" font-family='SFMono-Regular, Consolas, Liberation Mono, Menlo, monospace' font-size="11.5" fill="#E6EDF3" text-anchor="middle">XAI</text>

  <rect x="0" y="206" width="600" height="4" rx="2" fill="#F85149"/>
</svg>